<svg xmlns="http://www.w3.org/2000/svg" xmlns:xlink="http://www.w3.org/1999/xlink" version="1.1" x="0px" y="0px" viewBox="0 0 100 125" style="enable-background:new 0 0 100 100;" xml:space="preserve"><path d="M94.3,91.5c0.4,0.4,0.6,0.9,0.6,1.4s-0.2,1-0.6,1.4s-0.9,0.6-1.4,0.6s-1-0.2-1.4-0.6L49.9,52.8L8.4,94.3  C8,94.7,7.5,94.9,7,94.9s-1-0.2-1.4-0.6C5.2,93.9,5,93.4,5,92.9s0.2-1,0.6-1.4l41.5-41.5L5.6,8.4C5.2,8,5,7.5,5,7s0.2-1,0.6-1.4  c0.8-0.8,2-0.8,2.8,0l41.5,41.5L91.5,5.6c0.8-0.8,2-0.8,2.8,0C94.7,6,94.9,6.5,94.9,7s-0.2,1-0.6,1.4L52.8,49.9L94.3,91.5z"/><text x="0" y="115" fill="#000000" font-size="5px" font-weight="bold" font-family="'Helvetica Neue', Helvetica, Arial-Unicode, Arial, Sans-serif">Created by Khuzema</text><text x="0" y="120" fill="#000000" font-size="5px" font-weight="bold" font-family="'Helvetica Neue', Helvetica, Arial-Unicode, Arial, Sans-serif"></text></svg>
