<svg xmlns="http://www.w3.org/2000/svg" viewBox="0 0 48 60" x="0px" y="0px"><defs><style>.cls-1{fill:none;}</style></defs><title>hamburger menu</title><g data-name="Livello 2"><g><rect class="cls-1" width="48" height="48"/><path d="M34,16.75H14a.75.75,0,0,1,0-1.5H34a.75.75,0,0,1,0,1.5Z"/><path d="M34,32.75H14a.75.75,0,0,1,0-1.5H34a.75.75,0,0,1,0,1.5Z"/><path d="M34,24.75H14a.75.75,0,0,1,0-1.5H34a.75.75,0,0,1,0,1.5Z"/></g></g><text x="0" y="63" fill="#000000" font-size="5px" font-weight="bold" font-family="'Helvetica Neue', Helvetica, Arial-Unicode, Arial, Sans-serif">Created by Alessandro Curci</text><text x="0" y="68" fill="#000000" font-size="5px" font-weight="bold" font-family="'Helvetica Neue', Helvetica, Arial-Unicode, Arial, Sans-serif">from the Noun Project</text></svg>